<svg xmlns="http://www.w3.org/2000/svg" xmlns:xlink="http://www.w3.org/1999/xlink" xml:space="preserve" version="1.0" style="shape-rendering:geometricPrecision;text-rendering:geometricPrecision;image-rendering:optimizeQuality;" viewBox="0 0 10000 12500" x="0px" y="0px" fill-rule="evenodd" clip-rule="evenodd"><defs><style type="text/css">
   
    .fil0 {fill:black;fill-rule:nonzero}
   
  </style></defs><g><path class="fil0" d="M-10180 4775l0 -6 0 -1600 0 -1600 0 -6 0 -6 0 -1600c0,-101 82,-183 183,-183l1791 0 4452 0 1791 0c101,0 183,82 183,183l0 1600 0 6 0 6 0 1600 0 1600 0 6 0 6 0 1600c0,102 -82,184 -183,184l-1791 0 -4452 0 -1791 0c-101,0 -183,-82 -183,-184l0 -1600 0 -6zm367 -1422l0 1245 1424 0 0 -1245 -1424 0zm0 2845l1424 0 0 -1233 -1424 0 0 1233zm1790 -1423l0 6 0 1417 4086 0 0 -1417 0 -6 0 -6 0 -1600 0 -1600 0 -6 0 -6 0 -1416 -4086 0 0 1416 0 6 0 6 0 1600 0 1600 0 6zm4453 -1422l0 1245 1423 0 0 -1245 -1423 0zm0 -3212l0 1245 1423 0 0 -1245 -1423 0zm-4819 1233l0 -1233 -1424 0 0 1233 1424 0zm0 379l-1424 0 0 1233 1424 0 0 -1233zm6242 3212l-1423 0 0 1233 1423 0 0 -1233zm0 -3212l-1423 0 0 1233 1423 0 0 -1233zm-3008 1575l-733 423 0 1 -734 424c-88,50 -200,20 -250,-67 -17,-29 -25,-60 -25,-92l0 0 0 -848 0 -848c0,-101 82,-183 183,-183 38,0 73,12 103,31l723 418c3,2 6,4 9,6l724 418c88,50 118,162 67,249 -16,29 -40,52 -67,68zm-916 107l460 -266 -450 -260c-4,-1 -7,-3 -11,-5l-459 -265 0 530 0 531 459 -265 1 0 0 0z"/><path class="fil0" d="M-7027 10839c232,0 444,95 597,248l1 0c153,153 248,365 248,598 0,234 -95,445 -248,599 -4,4 -8,7 -13,11 -152,146 -359,236 -585,236 -233,0 -445,-95 -598,-248l-1 1c-153,-154 -248,-365 -248,-599 0,-233 95,-445 248,-598 4,-4 9,-8 13,-12 152,-146 359,-236 586,-236zm315 530c-80,-80 -192,-130 -315,-130 -120,0 -228,46 -308,122 -2,3 -5,6 -8,9 -81,80 -131,192 -131,315 0,123 50,235 131,316l0 0 0 0c80,81 192,130 316,130 119,0 227,-46 307,-121 2,-3 5,-6 8,-9 81,-81 131,-193 131,-316 0,-123 -50,-235 -131,-315l0 -1 0 0z"/><path class="fil0" d="M-7176 7485c0,-110 90,-200 200,-200 110,0 200,90 200,200l0 541c928,63 1761,470 2372,1094 603,617 991,1446 1040,2365l537 0c110,0 200,89 200,200 0,110 -90,200 -200,200l-538 0 0 2 0 0 0 9 -1 4 -1 21c-60,951 -483,1804 -1132,2422 -613,582 -1427,956 -2328,1004l0 538c0,111 -90,200 -200,200 -111,0 -200,-89 -200,-200l0 -536c-891,-48 -1698,-415 -2309,-988 -660,-618 -1091,-1479 -1152,-2440l-2 -26 0 -7 0 -3 -537 0c-111,0 -200,-90 -200,-200 0,-111 89,-200 200,-200l537 0c51,-939 453,-1783 1078,-2404 631,-626 1487,-1025 2436,-1062l0 -534zm400 940l0 642c0,110 -90,200 -200,200 -110,0 -200,-90 -200,-200l0 -648c-840,37 -1597,391 -2154,945 -553,549 -911,1293 -961,2121l526 0c110,0 200,89 200,200 0,110 -90,200 -200,200l-525 0 0 11c55,856 439,1623 1027,2175 539,505 1250,830 2036,877l0 -525c0,-111 89,-200 200,-200 110,0 200,89 200,200l0 525c793,-48 1511,-379 2053,-894 578,-551 955,-1311 1009,-2158l0 -11 -525 0c-110,0 -200,-90 -200,-200 0,-111 90,-200 200,-200l525 0c-49,-810 -392,-1541 -925,-2085 -539,-552 -1271,-913 -2086,-975z"/><path class="fil0" d="M-6285 -10429l17 0 1 0 15 1 2 0c1203,14 2289,511 3075,1306 786,795 1271,1887 1271,3092 0,1215 -493,2315 -1289,3111 -796,797 -1896,1289 -3111,1289 -1215,0 -2315,-492 -3112,-1289 -796,-796 -1288,-1896 -1288,-3111 0,-24 0,-65 2,-122 1,-39 2,-74 4,-105l0 -5c0,-10 1,-19 2,-28l2 -35 0 -6c78,-1147 596,-2174 1386,-2913 787,-735 1843,-1186 3004,-1186l0 0 1 0 1 0 1 0 0 0 1 0 1 0 1 0 1 0 0 0 12 1zm2826 1587c-682,-690 -1612,-1133 -2645,-1183l0 507c0,110 -90,200 -200,200 -111,0 -200,-90 -200,-200l0 -507c-978,48 -1863,446 -2532,1072 -682,637 -1140,1511 -1245,2491l495 0c110,0 200,89 200,200 0,110 -90,200 -200,200l-518 0 0 32c0,1105 447,2105 1171,2829 680,679 1604,1116 2629,1166l0 -506c0,-111 89,-200 200,-200 110,0 200,89 200,200l0 506c1025,-50 1948,-487 2628,-1166 680,-680 1116,-1604 1167,-2629l-507 0c-110,0 -200,-89 -200,-200 0,-110 90,-200 200,-200l507 0c-50,-1017 -480,-1934 -1150,-2612zm-2976 2964c-42,-37 -69,-91 -69,-152l0 -2313c0,-111 89,-200 200,-200 110,0 200,89 200,200l0 2231 2217 2219c78,78 78,204 0,282 -78,78 -205,77 -282,-1l-2266 -2266z"/><path class="fil0" d="M-21516 2823c0,-261 105,-497 276,-668 172,-171 408,-277 668,-277 260,0 497,106 668,277 171,171 277,407 277,668l0 3036 507 0 0 -3781c0,-261 106,-497 277,-668 171,-171 408,-277 668,-277 260,0 496,106 668,277 171,171 276,407 276,668l0 3781 345 0 0 -4456c0,-261 106,-497 277,-668 171,-171 407,-277 668,-277 260,0 496,106 668,277 170,171 276,407 276,668l0 4456 1187 0c110,0 200,89 200,200 0,110 -90,200 -200,200l-1387 0 -1489 0 -745 0 -1489 0 -907 0 -1489 0 -894 0c-110,0 -200,-90 -200,-200 0,-111 90,-200 200,-200l694 0 0 -3036zm559 -386c-98,98 -159,235 -159,386l0 3036 1089 0 0 -3036c0,-151 -61,-288 -160,-386 -98,-99 -234,-159 -385,-159 -151,0 -287,60 -385,159zm2237 3422l1089 0 0 -3781c0,-151 -61,-288 -159,-386 -98,-98 -234,-159 -385,-159 -151,0 -287,61 -385,159 -99,98 -160,235 -160,386l0 3781zm2234 0l1089 0 0 -4456c0,-151 -61,-288 -159,-387 -98,-98 -234,-158 -385,-158 -151,0 -287,60 -385,158 -99,99 -160,236 -160,387l0 4456z"/><path class="fil0" d="M-23544 -3125c-110,0 -200,-90 -200,-200 0,-285 162,-537 425,-714 239,-162 565,-262 923,-262 357,0 684,100 923,262 262,177 425,429 425,714 0,110 -90,200 -200,200l-2296 0zm448 -583c-79,53 -143,116 -186,183l1771 0c-43,-67 -106,-130 -185,-183 -176,-119 -424,-193 -700,-193 -277,0 -524,74 -700,193zm3565 -2401c0,-111 89,-200 200,-200 110,0 200,89 200,200l0 575 185 322 213 368c55,96 22,218 -73,272 -96,55 -217,22 -272,-73l-213 -369 -40 -70 -40 70 -213 369c-55,95 -177,128 -272,73 -95,-54 -128,-176 -73,-272l212 -368 186 -322 0 -575zm-948 -824c-110,0 -200,-90 -200,-200 0,-285 162,-537 425,-714 239,-162 565,-262 923,-262 357,0 684,100 923,262 262,177 425,429 425,714 0,110 -90,200 -200,200l-2296 0zm448 -583c-79,53 -143,115 -186,183l1771 0c-42,-68 -106,-130 -185,-183 -177,-119 -424,-193 -700,-193 -277,0 -524,74 -700,193zm2591 4391c-110,0 -200,-90 -200,-200 0,-285 163,-537 425,-714 239,-162 566,-262 923,-262 358,0 684,100 924,262 262,177 424,429 424,714 0,110 -90,200 -200,200l-2296 0zm448 -583c-79,53 -142,116 -185,183l1771 0c-43,-67 -107,-130 -186,-183 -176,-119 -423,-193 -700,-193 -276,0 -523,74 -700,193zm-5412 -2307c186,0 356,76 479,199 122,122 198,291 198,478 0,186 -76,355 -198,478 -123,123 -293,199 -479,199 -186,0 -356,-76 -479,-199 -122,-123 -198,-292 -198,-478 0,-187 76,-356 198,-478 123,-123 293,-199 479,-199zm196 480c-50,-50 -119,-80 -196,-80 -77,0 -146,30 -196,80 -50,50 -81,120 -81,197 0,77 31,146 81,196 50,50 119,81 196,81 77,0 146,-31 196,-81 50,-50 81,-119 81,-196 0,-77 -31,-147 -81,-197zm2869 -4288c186,0 356,76 479,199 122,122 198,291 198,478 0,186 -76,355 -198,478 -123,123 -293,199 -479,199 -186,0 -356,-76 -479,-199 -122,-123 -198,-292 -198,-478 0,-187 76,-356 198,-478 123,-123 292,-199 479,-199zm196 480c-50,-50 -119,-80 -196,-80 -77,0 -146,30 -196,80 -50,50 -81,120 -81,197 0,77 31,146 81,196 50,50 119,81 196,81 77,0 146,-31 196,-81 50,-50 81,-119 81,-196 0,-77 -31,-147 -81,-197zm2843 3328c187,0 356,76 479,199 122,122 198,291 198,478 0,186 -76,355 -198,478 -123,123 -292,199 -479,199 -186,0 -355,-76 -478,-199 -123,-123 -199,-292 -199,-478 0,-187 76,-356 199,-478 123,-123 292,-199 478,-199zm196 480c-49,-50 -119,-80 -196,-80 -77,0 -146,30 -196,80 -50,50 -81,120 -81,197 0,77 31,146 81,196 50,50 119,81 196,81 77,0 147,-31 196,-81 50,-50 81,-119 81,-196 0,-77 -31,-147 -81,-197z"/><path class="fil0" d="M-14458 9570c62,19 122,42 180,69 56,25 111,54 163,85l84 -83c78,-78 205,-78 283,0l386 386c78,79 78,205 0,283l-123 123c14,31 27,62 39,93 10,28 20,56 29,85l146 0c110,0 200,89 200,200l0 547c0,110 -90,200 -200,200l-146 0c-9,28 -19,56 -29,85 -12,31 -25,62 -39,92l123 123c78,78 78,205 0,283l-386 387c-78,78 -205,78 -283,0l-84 -84c-52,32 -107,61 -163,86 -58,26 -118,50 -180,69l0 145c0,111 -90,200 -200,200l-547 0c-110,0 -200,-89 -200,-200l0 -145c-48,-15 -95,-33 -142,-53 -46,-19 -92,-41 -135,-64l-100 99c-78,79 -205,79 -283,0l-386 -386c-79,-78 -79,-205 0,-283l106 -107c-20,-40 -39,-81 -56,-123 -17,-40 -32,-82 -45,-124l-146 0c-110,0 -200,-90 -200,-200l0 -547c0,-111 90,-200 200,-200l146 0c13,-42 28,-84 45,-124 17,-42 36,-83 56,-124l-106 -106c-79,-78 -79,-205 0,-283l386 -387c78,-78 205,-78 283,0l100 100c43,-23 89,-45 135,-65 47,-19 94,-37 142,-52l0 -146c0,-110 90,-200 200,-200l547 0c110,0 200,90 200,200l0 146zm16 433c-78,-36 -162,-63 -250,-81 -94,-16 -166,-98 -166,-197l0 -101 -147 0 0 101 0 0c0,93 -66,177 -161,196 -81,16 -156,39 -226,69 -69,29 -136,65 -199,107 -79,61 -192,55 -264,-17l-68 -69 -104 104 73 74 0 0c65,65 78,169 26,250 -40,61 -74,127 -103,198 -27,66 -48,135 -63,208 -16,94 -98,166 -197,166l-101 0 0 147 101 0 0 0c93,0 177,66 196,161 15,74 36,145 64,213 27,66 59,128 95,186 60,78 54,190 -18,262l-73 73 104 104 69 -69 0 1c66,-67 173,-79 253,-24 67,45 136,84 209,114 68,29 142,52 220,68 95,16 167,98 167,197l0 100 147 0 0 -100 0 0c0,-93 66,-177 161,-196 90,-18 175,-46 255,-82 79,-36 153,-80 221,-131 79,-68 198,-65 273,10l58 59 104 -104 -84 -84 1 -1c-62,-62 -78,-160 -32,-240 31,-54 58,-111 81,-173 21,-56 38,-115 51,-177 16,-95 98,-167 197,-167l101 0 0 -147 -101 0 0 0c-93,0 -177,-66 -196,-161 -13,-65 -30,-126 -52,-183 -21,-56 -45,-109 -73,-159 -54,-78 -46,-186 23,-255l84 -84 -104 -104 -59 59 0 -1c-69,70 -182,79 -262,18 -71,-54 -148,-101 -231,-138z"/><path class="fil0" d="M-14931 10435c179,0 341,73 459,190 117,118 190,280 190,459 0,180 -73,342 -190,459 -118,118 -280,191 -459,191 -180,0 -342,-73 -459,-191 -118,-117 -191,-279 -191,-459 0,-178 73,-340 191,-458l0 -1c117,-117 279,-190 459,-190zm176 473c-45,-45 -108,-73 -176,-73 -69,0 -132,28 -177,73l0 0 0 0c-45,45 -73,107 -73,176 0,69 28,132 73,177 45,45 108,73 177,73 68,0 131,-28 176,-73 45,-45 73,-108 73,-177 0,-69 -28,-131 -73,-176z"/><path class="fil0" d="M-17669 12261c62,19 122,43 180,69 56,25 111,54 163,86l84 -84c78,-78 204,-78 283,0l386 387c78,78 78,204 0,283l-123 123c14,30 27,61 39,92 10,28 20,57 29,85l146 0c110,0 200,90 200,200l0 547c0,110 -90,200 -200,200l-146 0c-9,28 -19,57 -29,85 -12,31 -25,62 -39,93l123 123c78,78 78,204 0,282l-386 387c-79,78 -205,78 -283,0l-84 -83c-52,31 -107,60 -163,85 -58,27 -118,50 -180,69l0 146c0,110 -90,200 -200,200l-547 0c-110,0 -200,-90 -200,-200l0 -146c-48,-15 -95,-33 -142,-52 -46,-20 -92,-42 -135,-65l-100 100c-78,78 -205,78 -283,0l-387 -387c-78,-78 -78,-205 0,-283l107 -106c-20,-41 -39,-82 -56,-123 -17,-41 -32,-83 -45,-125l-146 0c-110,0 -200,-89 -200,-200l0 -547c0,-110 90,-200 200,-200l146 0c13,-42 28,-83 45,-124 17,-42 36,-83 56,-123l-107 -107c-78,-78 -78,-205 0,-283l387 -386c78,-79 205,-79 283,0l100 99c43,-23 88,-45 135,-64 47,-20 94,-38 142,-53l0 -146c0,-110 90,-200 200,-200l547 0c110,0 200,90 200,200l0 146zm16 433c-78,-36 -162,-63 -250,-81 -94,-16 -166,-98 -166,-197l0 -101 -147 0 0 101 0 0c0,93 -66,177 -161,196 -81,16 -156,39 -226,69 -69,29 -136,65 -199,108 -79,60 -192,54 -264,-17l-68 -69 -104 104 73 73 0 0c65,66 78,170 26,250 -40,61 -74,127 -103,198 -27,66 -48,136 -63,208 -16,94 -98,166 -197,166l-101 0 0 147 101 0 0 0c93,0 177,66 196,161 15,74 36,146 64,214 27,66 59,128 95,185 60,79 54,191 -18,262l-73 74 104 104 68 -69 1 0c66,-67 173,-79 253,-24 67,46 136,84 209,114 68,29 142,52 220,68 95,16 167,98 167,197l0 101 147 0 0 -101 0 0c0,-93 66,-177 161,-196 90,-18 175,-45 255,-82 79,-35 153,-79 221,-130 79,-69 198,-65 272,9l59 59 104 -104 -84 -84 1 0c-62,-63 -78,-161 -32,-241 31,-53 58,-111 81,-173 21,-55 38,-115 51,-177 16,-95 98,-167 197,-167l101 0 0 -147 -101 0 0 0c-93,0 -177,-66 -196,-161 -13,-64 -30,-126 -52,-183 -21,-56 -45,-109 -73,-158 -54,-78 -46,-186 23,-256l84 -84 -104 -104 -59 59 0 0c-69,69 -182,79 -262,17 -71,-54 -148,-101 -231,-138z"/><path class="fil0" d="M-18143 13126c180,0 342,73 459,191 118,117 191,279 191,459 0,179 -73,341 -191,459 -117,117 -279,190 -459,190 -178,0 -340,-73 -458,-190l0 -1 -1 0 0 0c-117,-118 -190,-280 -190,-458 0,-180 73,-342 190,-459 5,-5 9,-8 13,-12 117,-111 274,-179 446,-179zm177 473c-45,-45 -108,-73 -177,-73 -65,0 -124,25 -168,65 -3,3 -5,6 -8,8 -45,45 -73,108 -73,177 0,69 28,131 72,176l1 1c45,44 107,72 176,72 69,0 132,-28 177,-73 45,-45 73,-108 73,-176 0,-69 -28,-132 -73,-177z"/><path class="fil0" d="M-31214 -7996c111,0 200,89 200,200l0 1504c0,102 -77,187 -176,199 99,11 176,96 176,198l0 1478c0,111 -89,200 -200,200l-793 0c16,54 24,111 24,169 0,164 -67,313 -175,421l-1 1c-108,108 -257,175 -421,175 -164,0 -313,-67 -421,-175l-1 -1c-108,-108 -175,-257 -175,-421 0,-58 8,-115 25,-169l-794 0c-111,0 -200,-89 -200,-200l0 -1478c0,-102 77,-187 176,-198 -99,-12 -176,-97 -176,-199l0 -1504c0,-111 89,-200 200,-200l794 0c-16,-55 -25,-112 -25,-171 0,-164 67,-314 175,-422 4,-4 8,-8 13,-12 107,-101 251,-163 409,-163 164,0 313,67 422,176l0 -1c108,108 175,258 175,422 0,59 -9,116 -25,171l794 0zm-200 400l-967 0c-103,0 -187,-77 -199,-177 -12,100 -96,177 -199,177l-967 0 0 923c46,-12 94,-18 143,-18 165,0 315,67 423,175l-1 1c109,108 176,257 176,422 0,157 -62,301 -163,409 -4,4 -8,8 -12,13 -108,108 -258,175 -423,175 -49,0 -97,-6 -143,-18l0 897 967 0c103,0 187,77 199,177 12,-100 96,-177 199,-177l967 0 0 -913c-62,22 -129,34 -197,34 -165,0 -314,-67 -422,-175 -4,-4 -8,-9 -12,-13 -101,-107 -163,-251 -163,-409 0,-165 67,-315 175,-423 4,-4 9,-8 13,-12 108,-101 252,-163 409,-163 68,0 135,12 197,34l0 -939zm1523 122c0,-110 89,-200 200,-200l1504 0c102,0 187,77 198,176 12,-99 97,-176 199,-176l1478 0c110,0 200,90 200,200l0 794c54,-16 111,-25 168,-25 164,0 313,67 421,175l1 0 0 1 1 0c108,108 175,258 175,422 0,164 -67,314 -175,422l-1 -1c-108,109 -257,176 -422,176 -57,0 -114,-9 -168,-25l0 794c0,111 -90,200 -200,200l-1478 0c-103,0 -187,-77 -199,-176 -11,99 -96,176 -198,176l-1504 0c-111,0 -200,-89 -200,-200l0 -794c-55,16 -112,25 -171,25 -164,0 -313,-67 -421,-176l-1 1c-108,-108 -175,-258 -175,-422 0,-164 67,-314 175,-422l1 0 0 -1 1 0c108,-108 257,-175 420,-175 59,0 116,9 171,26l0 -795zm400 200l0 968c0,102 -77,187 -177,199 100,11 177,96 177,198l0 968 923 0c-12,-47 -18,-95 -18,-144 0,-164 67,-312 174,-421l1 0 1 -1 0 0c108,-108 257,-175 421,-175 164,0 313,67 421,174l1 1 0 0 1 1c108,108 175,257 175,421 0,49 -7,97 -18,144l897 0 0 -968c0,-102 77,-187 176,-198 -99,-12 -176,-97 -176,-199l0 -968 -913 0c22,63 34,129 34,197 0,165 -67,314 -175,422 -108,108 -258,175 -423,175 -164,0 -313,-67 -421,-175l0 0 -1 0 -1 -1c-107,-108 -174,-257 -174,-421 0,-68 12,-134 34,-197l-939 0zm1503 -170l-1 -6 0 4 0 8 1 -6zm-1 2679c8,-68 51,-126 111,-155 25,-17 45,-40 61,-66l4 -7c14,-27 22,-59 22,-92 0,-55 -22,-104 -57,-139l-1 -1c-35,-35 -85,-57 -140,-57 -55,0 -104,22 -139,57l-1 1c-35,35 -57,84 -57,139 0,36 9,71 26,99 15,27 37,50 64,67 58,30 99,87 107,154zm100 -2483c-59,-34 -94,-93 -100,-156 -5,63 -40,122 -98,156 -31,18 -56,43 -73,72 -17,29 -26,63 -26,99 0,55 22,104 57,140l1 0c35,36 84,57 139,57 55,0 104,-22 140,-57 35,-36 58,-85 58,-140 0,-36 -10,-70 -26,-98l0 -1 0 0c-17,-30 -42,-55 -72,-72zm1618 1140c63,6 122,41 156,99 18,31 43,56 72,73l1 0 0 0c29,17 63,26 98,26 55,0 105,-22 140,-57l0 -1 0 0c35,-36 58,-85 58,-139 0,-55 -22,-105 -57,-140l-1 -1c-35,-35 -85,-57 -140,-57 -36,0 -70,9 -98,26l0 0c-30,18 -56,42 -73,72 -34,59 -93,94 -156,99zm-3619 100c34,-60 94,-95 158,-99 -64,-5 -124,-40 -158,-100 -18,-30 -43,-54 -73,-72l0 0c-28,-17 -62,-26 -99,-26 -55,0 -104,22 -139,57l-1 1c-35,35 -57,85 -57,140 0,54 22,103 58,139l0 0 0 1c35,35 84,57 139,57 36,0 70,-9 99,-26l0 0 1 0c29,-17 54,-42 72,-72zm-1353 -85l6 0 -6 -1 -9 1 9 0zm-2680 0c69,8 127,51 156,110 17,25 40,46 66,61 29,16 63,26 98,26 55,0 104,-22 140,-58l8 -7c31,-35 50,-81 50,-132 0,-55 -22,-105 -57,-140l-1 0 0 0c-36,-36 -85,-58 -140,-58 -35,0 -69,10 -98,26 -26,15 -49,36 -66,61 -29,60 -87,102 -156,111zm2484 99c34,-60 94,-95 158,-99 -64,-5 -124,-40 -158,-100 -18,-30 -43,-55 -72,-72 -29,-16 -63,-26 -100,-26 -51,0 -97,19 -132,50l-7 8c-36,36 -58,85 -58,140 0,51 19,97 51,132l7 7c35,36 85,58 139,58 37,0 71,-10 100,-26 29,-17 54,-42 72,-72zm-1141 1620c-6,62 -41,121 -99,154 -31,18 -56,43 -72,72 -17,29 -26,63 -26,100 0,54 22,104 57,140 36,35 85,57 140,57 55,0 104,-22 140,-57 35,-36 57,-86 57,-140 0,-36 -9,-70 -26,-99l-4 -8c-17,-26 -40,-48 -68,-65 -58,-33 -93,-92 -99,-154zm-99 -3621c58,33 93,92 99,154 6,-62 41,-121 99,-154 31,-18 56,-43 72,-72 17,-29 26,-63 26,-100 0,-54 -22,-103 -58,-139l1 0 -1 -1c-35,-35 -84,-57 -139,-57 -51,0 -98,19 -132,50l-7 8c-36,36 -58,85 -58,139 0,36 9,70 26,99l-1 0 1 1c16,29 41,54 72,72z"/><path class="fil0" d="M6093 3023l0 4650 2907 -696 0 -4650 -2907 696zm-400 4650l0 -4650 -2907 -696 0 2349c130,-50 272,-78 421,-78 322,0 615,131 827,343 212,212 343,505 343,827 0,323 -131,615 -343,828 -212,211 -505,342 -827,342 -149,0 -291,-27 -421,-78l0 117 2907 696zm265 442c-21,7 -43,11 -65,11 -23,0 -45,-4 -65,-11l-3271 -783c-97,-14 -171,-97 -171,-198l0 -367 -1471 1042c-90,63 -214,42 -277,-48 -64,-90 -43,-214 47,-277l1535 -1087c-116,-182 -184,-398 -184,-629 0,-322 132,-615 344,-827l6 -6 0 -2861c0,-110 89,-200 200,-200 22,0 44,4 64,11l3243 776 3242 -776c21,-7 42,-11 65,-11 110,0 200,90 200,200l0 5060c0,101 -75,184 -171,198l-3271 783zm2369 -2971c107,-26 214,40 240,147 25,107 -41,215 -148,240l-1653 396c-107,25 -215,-41 -240,-148 -26,-107 41,-214 148,-239l1653 -396zm0 -947c107,-25 214,41 240,148 25,107 -41,214 -148,239l-1653 396c-107,26 -215,-40 -240,-147 -26,-107 41,-215 148,-240l1653 -396zm0 -947c107,-25 214,41 240,148 25,107 -41,214 -148,240l-1653 396c-107,25 -215,-41 -240,-148 -26,-107 41,-215 148,-240l1653 -396zm-4961 372c-107,-25 -173,-133 -147,-240 25,-107 133,-173 240,-147l1653 396c107,25 173,132 148,239 -26,107 -133,173 -240,148l-1654 -396zm386 1602c-139,-140 -332,-226 -545,-226 -214,0 -407,86 -546,226 -139,139 -225,331 -225,544 0,213 86,406 225,545 139,139 332,225 546,225 213,0 406,-86 545,-225 139,-139 225,-332 225,-545 0,-213 -86,-405 -225,-544z"/></g><text x="0" y="10015" fill="#000000" font-size="5px" font-weight="bold" font-family="'Helvetica Neue', Helvetica, Arial-Unicode, Arial, Sans-serif">Created by rizqa anindita</text><text x="0" y="10020" fill="#000000" font-size="5px" font-weight="bold" font-family="'Helvetica Neue', Helvetica, Arial-Unicode, Arial, Sans-serif">from the Noun Project</text></svg>