<svg xmlns="http://www.w3.org/2000/svg" data-name="Layer 1" viewBox="0 0 30 37.5" x="0px" y="0px"><title>edit-adjust-refine-panel</title><path d="M28,14H11.858a3.981,3.981,0,0,0-7.716,0H2a1,1,0,0,0,0,2H4.142a3.981,3.981,0,0,0,7.716,0H28a1,1,0,0,0,0-2Z"/><path d="M28,4H24.858a3.981,3.981,0,0,0-7.716,0H2A1,1,0,0,0,2,6H17.142a3.981,3.981,0,0,0,7.716,0H28a1,1,0,0,0,0-2Z"/><path d="M28,24H22.858a3.981,3.981,0,0,0-7.716,0H2a1,1,0,0,0,0,2H15.142a3.981,3.981,0,0,0,7.716,0H28a1,1,0,0,0,0-2Z"/><text x="0" y="45" fill="#000000" font-size="5px" font-weight="bold" font-family="'Helvetica Neue', Helvetica, Arial-Unicode, Arial, Sans-serif">Created by Becris</text><text x="0" y="50" fill="#000000" font-size="5px" font-weight="bold" font-family="'Helvetica Neue', Helvetica, Arial-Unicode, Arial, Sans-serif">from the Noun Project</text></svg>